<svg xmlns="http://www.w3.org/2000/svg" viewBox="0 0 2521 2911">
  <polygon
    transform="translate(1260.5, 1455.5) scale(25.21)"
    points="0.000,57.735 50.000,28.868 50.000,-28.868 0.000,-57.735 -50.000,-28.868 -50.000,28.868"
    fill="#f5e7e0"
  />

  <g transform="translate(1260.5, 1455.5) scale(16) translate(0, -12)">
    <circle cx="0" cy="0" r="34" fill="#dba194" opacity="0.5" />

    <path
      fill="none"
      stroke="#a97ea3"
      stroke-width="8"
      stroke-linecap="round"
      stroke-linejoin="round"
      stroke-dasharray="0 0.9999"
      pathLength="9"
      d="M -35 -36 C -35 -10 35 10 35 36"
    />

    <path
      fill="none"
      stroke="#dba194"
      stroke-width="8"
      d="M 35 -40 C 35 -10 -35 10 -35 40"
    />

    <path
      fill="none"
      stroke="#434970"
      stroke-width="8"
      d="M 0 -30 A 30 30 0 1 0 30 0 L 0 0"
    />

    <!-- <text x="-44" y="65" fill="#434970" style="font-size: 22px">GXwasR</text> -->
  </g>

  <g fill="#434970">
    <path
      d="M701.2,2307c-17.8,0-34.5-3.2-50-9.7s-29.1-15.4-40.8-26.9c-11.7-11.5-20.8-24.9-27.3-40.3-6.5-15.4-9.7-32-9.7-49.8s3.2-34,9.7-49.3c6.5-15.3,15.5-28.6,27.1-40,11.6-11.4,25.2-20.2,40.7-26.6,15.5-6.3,32.1-9.5,50-9.5s24.6,1.8,36.4,5.3c11.8,3.5,22.6,8.4,32.2,14.8,9.6,6.3,17.5,13.6,23.6,21.8l-24.6,25.7c-7-6.8-14.3-12.4-21.6-16.9-7.4-4.5-15-7.9-22.7-10.2-7.7-2.3-15.5-3.5-23.2-3.5-12.7,0-24.3,2.2-35,6.7-10.7,4.5-20.1,10.7-28.2,18.7-8.1,8-14.4,17.3-18.8,28-4.5,10.7-6.7,22.4-6.7,35s2.3,23.8,7,34.7c4.7,10.9,11.2,20.5,19.5,28.7,8.3,8.2,18,14.7,28.9,19.4,10.9,4.7,22.5,7,34.7,7s17.8-1.3,26-4c8.2-2.7,15.5-6.5,21.8-11.4,6.3-4.9,11.3-10.6,14.8-17.1,3.5-6.5,5.3-13.3,5.3-20.6v-7l5.3,4.9h-75.3v-37.7h109.1c.5,2.6.8,5.1,1.1,7.6.2,2.5.4,4.8.5,7,.1,2.2.2,4.4.2,6.5,0,16.2-2.8,30.9-8.4,44.2-5.6,13.3-13.4,24.7-23.4,34.3-10,9.6-21.6,17.1-34.8,22.4-13.3,5.3-27.6,7.9-43.1,7.9Z"
    />
    <path
      d="M834.6,2303.5l94-134.1,23.6,27.8-72.9,106.3h-44.7ZM1010.6,2303.5l-76.4-110.5-97.9-135.9h48.2l74.6,109.1,99.6,137.3h-48.2ZM964.8,2189.1l-23.2-26.8,69-105.2h44.7l-90.5,132Z"
    />
    <path
      d="M1132,2303.5l-63-184.8,36.6-.4,45.1,138.3-8.1-.7,48.9-108.1h21.8l49.3,108.4-9.5.7,45.4-138.3h36.6l-62.3,184.8h-25l-51.4-117.6,8.1,1.1-47.9,116.5h-24.6Z"
    />
    <path
      d="M1434,2307c-15.3,0-29.2-4.2-41.7-12.7-12.6-8.4-22.6-19.9-30.1-34.5-7.5-14.5-11.3-31-11.3-49.3s3.8-35,11.4-49.5c7.6-14.4,18-25.8,31-34,13-8.2,27.6-12.3,43.8-12.3s18.4,1.4,26.4,4.2c8,2.8,15,6.7,20.9,11.8,6,5,10.9,10.9,14.8,17.4,3.9,6.6,6.3,13.6,7.2,21.1l-8.1-2.8v-47.9h36.6v184.8h-36.6v-44l8.4-2.5c-1.4,6.3-4.3,12.5-8.6,18.5-4.3,6-9.9,11.3-16.5,16-6.7,4.7-14.1,8.4-22.2,11.3-8.1,2.8-16.6,4.2-25.5,4.2ZM1443.5,2273.6c11,0,20.8-2.7,29.2-8.1,8.4-5.4,15.1-12.8,19.9-22.4,4.8-9.5,7.2-20.4,7.2-32.6s-2.4-22.6-7.2-32c-4.8-9.4-11.4-16.8-19.9-22.2-8.4-5.4-18.2-8.1-29.2-8.1s-20.4,2.7-28.7,8.1c-8.3,5.4-14.9,12.8-19.7,22.2-4.8,9.4-7.2,20.1-7.2,32s2.4,23.1,7.2,32.6c4.8,9.5,11.4,17,19.7,22.4,8.3,5.4,17.9,8.1,28.7,8.1Z"
    />
    <path
      d="M1647.3,2307c-15.5,0-29.5-2.7-41.9-8.1-12.4-5.4-22.8-13.4-31-23.9l24.6-21.1c7,8.2,14.7,14.1,23.1,17.8,8.3,3.6,17.8,5.5,28.3,5.5s8.2-.5,11.8-1.6c3.6-1.1,6.8-2.6,9.5-4.8,2.7-2.1,4.8-4.6,6.2-7.6,1.4-2.9,2.1-6.2,2.1-9.7,0-6.1-2.2-11-6.7-14.8-2.3-1.6-6-3.5-11.1-5.5-5-2-11.6-4-19.5-6.2-13.6-3.5-24.8-7.5-33.4-12-8.7-4.5-15.4-9.5-20.1-15.1-3.5-4.5-6.1-9.3-7.7-14.6-1.6-5.3-2.5-11.1-2.5-17.4s1.7-14.8,5.1-21.3c3.4-6.5,8.1-12.1,14.1-16.9,6-4.8,13-8.5,21.1-11.1,8.1-2.6,16.7-3.9,25.9-3.9s17.3,1.2,25.9,3.5c8.6,2.3,16.5,5.8,23.8,10.2,7.3,4.5,13.4,9.7,18.3,15.8l-20.8,22.9c-4.5-4.5-9.3-8.4-14.6-11.8-5.3-3.4-10.6-6-16-7.9-5.4-1.9-10.3-2.8-14.8-2.8s-9.4.5-13.4,1.4c-4,.9-7.3,2.3-10,4.2-2.7,1.9-4.8,4.2-6.2,7-1.4,2.8-2.1,6-2.1,9.5.2,3.1,1,5.9,2.3,8.6,1.3,2.7,3.1,5,5.5,6.9,2.6,1.9,6.5,3.9,11.6,6,5.2,2.1,11.7,4.1,19.7,6,11.7,3.1,21.4,6.4,29,10,7.6,3.6,13.7,7.8,18.1,12.5,4.7,4.5,8,9.6,9.9,15.5,1.9,5.9,2.8,12.4,2.8,19.7,0,10.6-3,20-9,28.3-6,8.3-14,14.8-24.1,19.5-10.1,4.7-21.4,7-33.8,7Z"
    />
    <path
      d="M1763.5,2303.5v-246.4h104.9c14.1,0,27,3.5,38.9,10.4,11.8,6.9,21.3,16.3,28.3,28.2,7,11.9,10.6,25.2,10.6,40s-3.5,25.8-10.6,37.3c-7,11.5-16.4,20.7-28.2,27.6-11.7,6.9-24.8,10.4-39.1,10.4h-66.9v92.6h-38ZM1801.5,2174.3h70.4c6.8,0,12.9-1.7,18.3-5.1,5.4-3.4,9.6-8.1,12.7-14.1,3-6,4.6-12.6,4.6-19.9s-1.9-15.4-5.8-21.6c-3.9-6.2-9.3-11.1-16.2-14.6-6.9-3.5-14.7-5.3-23.4-5.3h-60.5v80.6ZM1909.9,2303.5l-62.7-111.2,39.1-8.8,69.7,120.4-46.1-.4Z"
    />
  </g>
</svg>
